# Wavefront OBJ file automatically generated by Tiled2Unity

# Vertices (Count = 56)
v -1.02400004863739 -2.04800009727478 0
v -2.04800009727478 -2.04800009727478 0
v -2.04800009727478 -1.02400004863739 0
v -1.02400004863739 -1.02400004863739 0
v -3.07200002670288 -2.04800009727478 0
v -3.07200002670288 -1.02400004863739 0
v -4.09600019454956 -2.04800009727478 0
v -4.09600019454956 -1.02400004863739 0
v -5.12000036239624 -2.04800009727478 0
v -5.12000036239624 -1.02400004863739 0
v -6.14400005340576 -2.04800009727478 0
v -6.14400005340576 -1.02400004863739 0
v -1.02400004863739 -3.07200002670288 0
v -2.04800009727478 -3.07200002670288 0
v -3.07200002670288 -3.07200002670288 0
v -4.09600019454956 -3.07200002670288 0
v -5.12000036239624 -3.07200002670288 0
v -6.14400005340576 -3.07200002670288 0
v -7.16800022125244 -3.07200002670288 0
v -7.16800022125244 -2.04800009727478 0
v -1.02400004863739 -4.09600019454956 0
v -2.04800009727478 -4.09600019454956 0
v -3.07200002670288 -4.09600019454956 0
v -4.09600019454956 -4.09600019454956 0
v -5.12000036239624 -4.09600019454956 0
v -6.14400005340576 -4.09600019454956 0
v -7.16800022125244 -4.09600019454956 0
v -1.02400004863739 -5.12000036239624 0
v -2.04800009727478 -5.12000036239624 0
v -3.07200002670288 -5.12000036239624 0
v -4.09600019454956 -5.12000036239624 0
v -5.12000036239624 -5.12000036239624 0
v -6.14400005340576 -5.12000036239624 0
v 0 -1.02400004863739 0
v -1.02400004863739 0 0
v 0 0 0
v -2.04800009727478 0 0
v -3.07200002670288 0 0
v -4.09600019454956 0 0
v -5.12000036239624 0 0
v -6.14400005340576 0 0
v -7.16800022125244 -1.02400004863739 0
v -7.16800022125244 0 0
v 0 -2.04800009727478 0
v 0 -3.07200002670288 0
v 0 -4.09600019454956 0
v 0 -5.12000036239624 0
v -7.16800022125244 -5.12000036239624 0
v 0 -6.14400005340576 0
v -1.02400004863739 -6.14400005340576 0
v -2.04800009727478 -6.14400005340576 0
v -3.07200002670288 -6.14400005340576 0
v -4.09600019454956 -6.14400005340576 0
v -5.12000036239624 -6.14400005340576 0
v -6.14400005340576 -6.14400005340576 0
v -7.16800022125244 -6.14400005340576 0

# Texture Coorindates (Count = 32)
vt 0.739767 0.6214238
vt 0.7631915 0.6214238
vt 0.7631915 0.6448483
vt 0.739767 0.6448483
vt 0.7989386 0.6214238
vt 0.8223631 0.6214238
vt 0.8223631 0.6448483
vt 0.7989386 0.6448483
vt 0.7693529 0.6214238
vt 0.7927774 0.6214238
vt 0.7927774 0.6448483
vt 0.7693529 0.6448483
vt 0.7693529 0.6805955
vt 0.7927774 0.6805955
vt 0.7927774 0.70402
vt 0.7693529 0.70402
vt 0.6550503 0.6427351
vt 0.5173634 0.6427351
vt 0.5173634 0.3572649
vt 0.6550503 0.3572649
vt 0.6897773 0.3572649
vt 0.8274642 0.3572649
vt 0.8274642 0.6427351
vt 0.6897773 0.6427351
vt 0.8277083 0.3570208
vt 0.8277083 0.6429792
vt 0.6895331 0.6429792
vt 0.6895331 0.3570208
vt 0.5171193 0.6429792
vt 0.5171193 0.3570208
vt 0.6552945 0.3570208
vt 0.6552945 0.6429792

# Normal
vn 0 0 -1

# Groups (Count = 4)
g mesh_[00]_[01]
f  1/1/1  2/2/1  3/3/1  4/4/1 
f  2/5/1  5/6/1  6/7/1  3/8/1 
f  5/9/1  7/10/1  8/11/1  6/12/1 
f  7/13/1  9/14/1  10/15/1  8/16/1 
f  9/5/1  11/6/1  12/7/1  10/8/1 
f  13/5/1  14/6/1  2/7/1  1/8/1 
f  14/13/1  15/14/1  5/15/1  2/16/1 
f  15/9/1  16/10/1  7/11/1  5/12/1 
f  16/1/1  17/2/1  9/3/1  7/4/1 
f  17/1/1  18/2/1  11/3/1  9/4/1 
f  18/9/1  19/10/1  20/11/1  11/12/1 
f  21/1/1  22/2/1  14/3/1  13/4/1 
f  22/13/1  23/14/1  15/15/1  14/16/1 
f  23/1/1  24/2/1  16/3/1  15/4/1 
f  24/13/1  25/14/1  17/15/1  16/16/1 
f  25/5/1  26/6/1  18/7/1  17/8/1 
f  26/9/1  27/10/1  19/11/1  18/12/1 
f  28/13/1  29/14/1  22/15/1  21/16/1 
f  29/5/1  30/6/1  23/7/1  22/8/1 
f  30/5/1  31/6/1  24/7/1  23/8/1 
f  31/9/1  32/10/1  25/11/1  24/12/1 
f  32/1/1  33/2/1  26/3/1  25/4/1 
g mesh_[01]_[00]
f  18/17/1  19/18/1  20/19/1  11/20/1 
f  26/19/1  27/20/1  19/17/1  18/18/1 
g mesh_[02]_[00]
f  34/21/1  4/22/1  35/23/1  36/24/1 
f  4/19/1  3/20/1  37/17/1  35/18/1 
f  3/19/1  6/20/1  38/17/1  37/18/1 
f  6/19/1  8/20/1  39/17/1  38/18/1 
f  8/19/1  10/20/1  40/17/1  39/18/1 
f  10/19/1  12/20/1  41/17/1  40/18/1 
f  12/25/1  42/26/1  43/27/1  41/28/1 
f  44/29/1  1/30/1  4/31/1  34/32/1 
f  11/31/1  20/32/1  42/29/1  12/30/1 
f  45/29/1  13/30/1  1/31/1  44/32/1 
f  18/23/1  19/24/1  20/21/1  11/22/1 
f  46/29/1  21/30/1  13/31/1  45/32/1 
f  26/25/1  27/26/1  19/27/1  18/28/1 
f  47/29/1  28/30/1  21/31/1  46/32/1 
f  33/31/1  48/32/1  27/29/1  26/30/1 
f  49/27/1  50/28/1  28/25/1  47/26/1 
f  50/17/1  51/18/1  29/19/1  28/20/1 
f  51/17/1  52/18/1  30/19/1  29/20/1 
f  52/17/1  53/18/1  31/19/1  30/20/1 
f  53/17/1  54/18/1  32/19/1  31/20/1 
f  54/17/1  55/18/1  33/19/1  32/20/1 
f  55/23/1  56/24/1  48/21/1  33/22/1 
g mesh_[03]_[00]
f  18/27/1  19/28/1  20/25/1  11/26/1 
f  26/21/1  27/22/1  19/23/1  18/24/1 
